<svg id="SvgjsSvg2627" width="742" height="685.7000122070312" xmlns="http://www.w3.org/2000/svg" version="1.1" xmlns:xlink="http://www.w3.org/1999/xlink" xmlns:svgjs="http://svgjs.com/svgjs"><defs id="SvgjsDefs2628"><marker id="SvgjsMarker2752" markerWidth="14" markerHeight="10" refX="10" refY="5" viewBox="0 0 14 10" orient="auto" markerUnits="userSpaceOnUse" stroke-dasharray="0,0"><path id="SvgjsPath2753" d="M0,0 L14,5 L0,10 L0,0" fill="#ffffff" stroke="#ffffff" stroke-width="1"></path></marker><marker id="SvgjsMarker2756" markerWidth="14" markerHeight="10" refX="10" refY="5" viewBox="0 0 14 10" orient="auto" markerUnits="userSpaceOnUse" stroke-dasharray="0,0"><path id="SvgjsPath2757" d="M0,0 L14,5 L0,10 L0,0" fill="#000000" stroke="#000000" stroke-width="1"></path></marker><marker id="SvgjsMarker2760" markerWidth="14" markerHeight="10" refX="10" refY="5" viewBox="0 0 14 10" orient="auto" markerUnits="userSpaceOnUse" stroke-dasharray="0,0"><path id="SvgjsPath2761" d="M0,0 L14,5 L0,10 L0,0" fill="#ffffff" stroke="#ffffff" stroke-width="1"></path></marker><marker id="SvgjsMarker2770" markerWidth="14" markerHeight="10" refX="10" refY="5" viewBox="0 0 14 10" orient="auto" markerUnits="userSpaceOnUse" stroke-dasharray="0,0"><path id="SvgjsPath2771" d="M0,0 L14,5 L0,10 L0,0" fill="#ffffff" stroke="#ffffff" stroke-width="1"></path></marker><marker id="SvgjsMarker2774" markerWidth="14" markerHeight="10" refX="10" refY="5" viewBox="0 0 14 10" orient="auto" markerUnits="userSpaceOnUse" stroke-dasharray="0,0"><path id="SvgjsPath2775" d="M0,0 L14,5 L0,10 L0,0" fill="#ffffff" stroke="#ffffff" stroke-width="1"></path></marker><marker id="SvgjsMarker2784" markerWidth="14" markerHeight="10" refX="10" refY="5" viewBox="0 0 14 10" orient="auto" markerUnits="userSpaceOnUse" stroke-dasharray="0,0"><path id="SvgjsPath2785" d="M0,0 L14,5 L0,10 L0,0" fill="#ffffff" stroke="#ffffff" stroke-width="1"></path></marker><marker id="SvgjsMarker2924" markerWidth="14" markerHeight="10" refX="10" refY="5" viewBox="0 0 14 10" orient="auto" markerUnits="userSpaceOnUse" stroke-dasharray="0,0"><path id="SvgjsPath2925" d="M0,0 L14,5 L0,10 L0,0" fill="#ffffff" stroke="#ffffff" stroke-width="1"></path></marker><marker id="SvgjsMarker2928" markerWidth="14" markerHeight="10" refX="10" refY="5" viewBox="0 0 14 10" orient="auto" markerUnits="userSpaceOnUse" stroke-dasharray="0,0"><path id="SvgjsPath2929" d="M0,0 L14,5 L0,10 L0,0" fill="#323232" stroke="#323232" stroke-width="1"></path></marker><marker id="SvgjsMarker2932" markerWidth="14" markerHeight="10" refX="10" refY="5" viewBox="0 0 14 10" orient="auto" markerUnits="userSpaceOnUse" stroke-dasharray="0,0"><path id="SvgjsPath2933" d="M0,0 L14,5 L0,10 L0,0" fill="#323232" stroke="#323232" stroke-width="1"></path></marker><marker id="SvgjsMarker2936" markerWidth="14" markerHeight="10" refX="10" refY="5" viewBox="0 0 14 10" orient="auto" markerUnits="userSpaceOnUse" stroke-dasharray="0,0"><path id="SvgjsPath2937" d="M0,0 L14,5 L0,10 L0,0" fill="#323232" stroke="#323232" stroke-width="1"></path></marker><marker id="SvgjsMarker2940" markerWidth="14" markerHeight="10" refX="10" refY="5" viewBox="0 0 14 10" orient="auto" markerUnits="userSpaceOnUse" stroke-dasharray="0,0"><path id="SvgjsPath2941" d="M0,0 L14,5 L0,10 L0,0" fill="#323232" stroke="#323232" stroke-width="1"></path></marker><marker id="SvgjsMarker2944" markerWidth="14" markerHeight="10" refX="10" refY="5" viewBox="0 0 14 10" orient="auto" markerUnits="userSpaceOnUse" stroke-dasharray="0,0"><path id="SvgjsPath2945" d="M0,0 L14,5 L0,10 L0,0" fill="#323232" stroke="#323232" stroke-width="1"></path></marker><marker id="SvgjsMarker2948" markerWidth="14" markerHeight="10" refX="10" refY="5" viewBox="0 0 14 10" orient="auto" markerUnits="userSpaceOnUse" stroke-dasharray="0,0"><path id="SvgjsPath2949" d="M0,0 L14,5 L0,10 L0,0" fill="#323232" stroke="#323232" stroke-width="1"></path></marker></defs><rect id="svgbackgroundid" width="742" height="685.7000122070312" fill="#ffffff"></rect><g id="SvgjsG2630" transform="translate(438.714148081737,531.7000122070312)"><path id="SvgjsPath2631" d="M 0 4Q 0 0 4 0L 250.285851918263 0Q 254.285851918263 0 254.285851918263 4L 254.285851918263 125.43642895464882Q 254.285851918263 129.43642895464882 250.285851918263 129.43642895464882L 4 129.43642895464882Q 0 129.43642895464882 0 125.43642895464882Z" stroke="none" fill-opacity="1" fill="#e0e0e0"></path><g id="SvgjsG2632"><text id="SvgjsText2633" font-family="微软雅黑" text-anchor="middle" font-size="13px" width="235px" fill="#000000" font-weight="400" align="middle" lineHeight="125%" anchor="middle" family="微软雅黑" size="13px" weight="400" font-style="" opacity="1" y="54.09321447732441" transform="rotate(0)"></text></g></g><g id="SvgjsG2634" transform="translate(25,500.6057694237429)"><path id="SvgjsPath2635" d="M 0 10.5L 691 10.5" stroke-dasharray="10,6" stroke="rgba(76,175,80,1)" stroke-width="1" fill="none"></path><path id="SvgjsPath2636" d="M 0 0L 691 0L 691 21L 0 21Z" stroke="none" fill="none"></path></g><g id="SvgjsG2637" transform="translate(26,367.0249597188265)"><path id="SvgjsPath2638" d="M 0 10.5L 691 10.5" stroke-dasharray="10,6" stroke="rgba(76,175,80,1)" stroke-width="1" fill="none"></path><path id="SvgjsPath2639" d="M 0 0L 691 0L 691 21L 0 21Z" stroke="none" fill="none"></path></g><g id="SvgjsG2640" transform="translate(26,78.93025500531257)"><path id="SvgjsPath2641" d="M 0 10.5L 691 10.5" stroke-dasharray="10,6" stroke="rgba(76,175,80,1)" stroke-width="1" fill="none"></path><path id="SvgjsPath2642" d="M 0 0L 691 0L 691 21L 0 21Z" stroke="none" fill="none"></path></g><g id="SvgjsG2643" transform="translate(134.49910039746186,24.99382605066444)"><path id="SvgjsPath2644" d="M 0 4Q 0 0 4 0L 556.1079023174325 0Q 560.1079023174325 0 560.1079023174325 4L 560.1079023174325 47.206186156367494Q 560.1079023174325 51.206186156367494 556.1079023174325 51.206186156367494L 4 51.206186156367494Q 0 51.206186156367494 0 47.206186156367494Z" stroke="none" fill-opacity="1" fill="#e0e0e0"></path><g id="SvgjsG2645"><text id="SvgjsText2646" font-family="微软雅黑" text-anchor="middle" font-size="12px" width="541px" fill="#000000" font-weight="400" align="middle" lineHeight="125%" anchor="middle" family="微软雅黑" size="12px" weight="400" font-style="" opacity="1" y="15.603093078183747" transform="rotate(0)"></text></g></g><g id="SvgjsG2647" transform="translate(134.4991003974617,531.7000122070312)"><path id="SvgjsPath2648" d="M 0 4Q 0 0 4 0L 255.71490503232724 0Q 259.71490503232724 0 259.71490503232724 4L 259.71490503232724 125.43642895464882Q 259.71490503232724 129.43642895464882 255.71490503232724 129.43642895464882L 4 129.43642895464882Q 0 129.43642895464882 0 125.43642895464882Z" stroke="none" fill-opacity="1" fill="#e0e0e0"></path><g id="SvgjsG2649"><text id="SvgjsText2650" font-family="微软雅黑" text-anchor="middle" font-size="13px" width="240px" fill="#000000" font-weight="400" align="middle" lineHeight="125%" anchor="middle" family="微软雅黑" size="13px" weight="400" font-style="" opacity="1" y="54.09321447732441" transform="rotate(0)"></text></g></g><g id="SvgjsG2651" transform="translate(25,538.4576166683928)"><path id="SvgjsPath2652" d="M 0 0L 95 0L 95 43L 0 43Z" stroke="none" fill="none"></path><g id="SvgjsG2653"><text id="SvgjsText2654" font-family="微软雅黑" text-anchor="middle" font-size="14px" width="95px" fill="#000000" font-weight="700" align="middle" lineHeight="125%" anchor="middle" family="微软雅黑" size="14px" weight="700" font-style="" opacity="1" y="9.75" transform="rotate(0)"><tspan id="SvgjsTspan2655" dy="17" x="47.5"><tspan id="SvgjsTspan2656" style="text-decoration:;">统计分析</tspan></tspan></text></g></g><g id="SvgjsG2657" transform="translate(132.28509496767316,190.7000122070317)"><path id="SvgjsPath2658" d="M 0 4Q 0 0 4 0L 556.1079023174327 0Q 560.1079023174327 0 560.1079023174327 4L 560.1079023174327 167.6666717529297Q 560.1079023174327 171.6666717529297 556.1079023174327 171.6666717529297L 4 171.6666717529297Q 0 171.6666717529297 0 167.6666717529297Z" stroke="none" fill-opacity="1" fill="#e0e0e0"></path><g id="SvgjsG2659"><text id="SvgjsText2660" font-family="微软雅黑" text-anchor="middle" font-size="13px" width="541px" fill="#000000" font-weight="400" align="middle" lineHeight="125%" anchor="middle" family="微软雅黑" size="13px" weight="400" font-style="" opacity="1" y="75.20833587646484" transform="rotate(0)"></text></g></g><g id="SvgjsG2661" transform="translate(26,255.03334808349655)"><path id="SvgjsPath2662" d="M 0 0L 95 0L 95 43L 0 43Z" stroke="none" fill="none"></path><g id="SvgjsG2663"><text id="SvgjsText2664" font-family="微软雅黑" text-anchor="middle" font-size="14px" width="95px" fill="#000000" font-weight="700" align="middle" lineHeight="125%" anchor="middle" family="微软雅黑" size="14px" weight="700" font-style="" opacity="1" y="9.75" transform="rotate(0)"><tspan id="SvgjsTspan2665" dy="17" x="47.5"><tspan id="SvgjsTspan2666" style="text-decoration:;">基因预测</tspan></tspan></text></g></g><g id="SvgjsG2667" transform="translate(325.959089977398,272.36667633056686)"><path id="SvgjsPath2668" d="M 0 0L 174.97391772777155 0L 174.97391772777155 30.666671752929688L 0 30.666671752929688Z" stroke="rgba(255,255,255,1)" stroke-width="2" fill-opacity="1" fill="#e0e0e0"></path><g id="SvgjsG2669"><text id="SvgjsText2670" font-family="微软雅黑" text-anchor="middle" font-size="13px" width="155px" fill="#000000" font-weight="400" align="middle" lineHeight="125%" anchor="middle" family="微软雅黑" size="13px" weight="400" font-style="" opacity="1" y="4.708335876464844" transform="rotate(0)"><tspan id="SvgjsTspan2671" dy="16" x="87.5"><tspan id="SvgjsTspan2672" style="text-decoration:;">合并全部基因预测结果</tspan></tspan></text></g></g><g id="SvgjsG2673" transform="translate(176.5,194.1604978035939)"><path id="SvgjsPath2674" d="M 0 0L 112 0L 112 31L 0 31Z" stroke="rgba(255,255,255,1)" stroke-width="2" fill-opacity="1" fill="#e0e0e0"></path><g id="SvgjsG2675"><text id="SvgjsText2676" font-family="微软雅黑" text-anchor="middle" font-size="13px" width="92px" fill="#000000" font-weight="400" align="middle" lineHeight="125%" anchor="middle" family="微软雅黑" size="13px" weight="400" font-style="" opacity="1" y="4.875" transform="rotate(0)"><tspan id="SvgjsTspan2677" dy="16" x="56"><tspan id="SvgjsTspan2678" style="text-decoration:;">基因预测</tspan></tspan></text></g></g><g id="SvgjsG2679" transform="translate(25,33.20001220703193)"><path id="SvgjsPath2680" d="M 0 0L 95 0L 95 43L 0 43Z" stroke="none" fill="none"></path><g id="SvgjsG2681"><text id="SvgjsText2682" font-family="微软雅黑" text-anchor="middle" font-size="14px" width="95px" fill="#000000" font-weight="700" align="middle" lineHeight="125%" anchor="middle" family="微软雅黑" size="14px" weight="700" font-style="" opacity="1" y="9.75" transform="rotate(0)"><tspan id="SvgjsTspan2683" dy="17" x="47.5"><tspan id="SvgjsTspan2684" style="text-decoration:;">数据质控</tspan></tspan></text></g></g><g id="SvgjsG2685" transform="translate(335.1875816429679,35.89884717655741)"><path id="SvgjsPath2686" d="M 0 0L 164.79709039303506 0L 164.79709039303506 29.39614390458134L 0 29.39614390458134Z" stroke="rgba(255,255,255,1)" stroke-width="2" fill-opacity="1" fill="#e0e0e0"></path><g id="SvgjsG2687"><text id="SvgjsText2688" font-family="微软雅黑" text-anchor="middle" font-size="12px" width="145px" fill="#000000" font-weight="400" align="middle" lineHeight="125%" anchor="middle" family="微软雅黑" size="12px" weight="400" font-style="" opacity="1" y="4.69807195229067" transform="rotate(0)"><tspan id="SvgjsTspan2689" dy="15" x="82.5"><tspan id="SvgjsTspan2690" style="text-decoration:;">去除低质量/去除宿主</tspan></tspan></text></g></g><g id="SvgjsG2691" transform="translate(180.5007421942907,35.89884717655741)"><path id="SvgjsPath2692" d="M 0 0L 96.04738397140088 0L 96.04738397140088 29.39614390458134L 0 29.39614390458134Z" stroke="rgba(255,255,255,1)" stroke-width="2" fill-opacity="1" fill="#e0e0e0"></path><g id="SvgjsG2693"><text id="SvgjsText2694" font-family="微软雅黑" text-anchor="middle" font-size="12px" width="77px" fill="#000000" font-weight="400" align="middle" lineHeight="125%" anchor="middle" family="微软雅黑" size="12px" weight="400" font-style="" opacity="1" y="4.69807195229067" transform="rotate(0)"><tspan id="SvgjsTspan2695" dy="15" x="48.5"><tspan id="SvgjsTspan2696" style="text-decoration:;">原始数据</tspan></tspan></text></g></g><g id="SvgjsG2697" transform="translate(557.9279988885289,35.89884717655741)"><path id="SvgjsPath2698" d="M 0 0L 96.04738397140088 0L 96.04738397140088 29.39614390458134L 0 29.39614390458134Z" stroke="rgba(255,255,255,1)" stroke-width="2" fill-opacity="1" fill="#e0e0e0"></path><g id="SvgjsG2699"><text id="SvgjsText2700" font-family="微软雅黑" text-anchor="middle" font-size="12px" width="77px" fill="#000000" font-weight="400" align="middle" lineHeight="125%" anchor="middle" family="微软雅黑" size="12px" weight="400" font-style="" opacity="1" y="4.69807195229067" transform="rotate(0)"><tspan id="SvgjsTspan2701" dy="15" x="48.5"><tspan id="SvgjsTspan2702" style="text-decoration:;">高质量数据</tspan></tspan></text></g></g><g id="SvgjsG2703" transform="translate(26,168.93025500531257)"><path id="SvgjsPath2704" d="M 0 10.5L 691 10.5" stroke-dasharray="10,6" stroke="rgba(76,175,80,1)" stroke-width="1" fill="none"></path><path id="SvgjsPath2705" d="M 0 0L 691 0L 691 21L 0 21Z" stroke="none" fill="none"></path></g><g id="SvgjsG2706" transform="translate(25,114.20001220703216)"><path id="SvgjsPath2707" d="M 0 0L 95 0L 95 43L 0 43Z" stroke="none" fill="none"></path><g id="SvgjsG2708"><text id="SvgjsText2709" font-family="微软雅黑" text-anchor="middle" font-size="14px" width="95px" fill="#000000" font-weight="700" align="middle" lineHeight="125%" anchor="middle" family="微软雅黑" size="14px" weight="700" font-style="" opacity="1" y="9.75" transform="rotate(0)"><tspan id="SvgjsTspan2710" dy="17" x="47.5"><tspan id="SvgjsTspan2711" style="text-decoration:;">组装</tspan></tspan></text></g></g><g id="SvgjsG2712" transform="translate(383.3929972851057,106.70001220703216)"><path id="SvgjsPath2713" d="M 0 4Q 0 0 4 0L 305.0000000000001 0Q 309.0000000000001 0 309.0000000000001 4L 309.0000000000001 54Q 309.0000000000001 58 305.0000000000001 58L 4 58Q 0 58 0 54Z" stroke="none" fill-opacity="1" fill="#e0e0e0"></path><g id="SvgjsG2714"><text id="SvgjsText2715" font-family="微软雅黑" text-anchor="start" font-size="12px" width="290px" fill="#000000" font-weight="400" align="middle" lineHeight="125%" anchor="start" family="微软雅黑" size="12px" weight="400" font-style="" opacity="1" y="19" transform="rotate(0)"><tspan id="SvgjsTspan2716" dy="15" x="10"><tspan id="SvgjsTspan2717" style="text-decoration:;"> </tspan></tspan></text></g></g><g id="SvgjsG2718" transform="translate(557.2044598505934,120.20001220703216)"><path id="SvgjsPath2719" d="M 0 0L 95.00000000000004 0L 95.00000000000004 30.999999999999996L 0 30.999999999999996Z" stroke="rgba(255,255,255,1)" stroke-width="2" fill-opacity="1" fill="#e0e0e0"></path><g id="SvgjsG2720"><text id="SvgjsText2721" font-family="微软雅黑" text-anchor="middle" font-size="12px" width="76px" fill="#000000" font-weight="400" align="middle" lineHeight="125%" anchor="middle" family="微软雅黑" size="12px" weight="400" font-style="" opacity="1" y="5.499999999999998" transform="rotate(0)"><tspan id="SvgjsTspan2722" dy="15" x="48"><tspan id="SvgjsTspan2723" style="text-decoration:;">个体组装</tspan></tspan></text></g></g><g id="SvgjsG2724" transform="translate(399.8929972851058,120.20001220703216)"><path id="SvgjsPath2725" d="M 0 0L 95.00000000000004 0L 95.00000000000004 30.999999999999996L 0 30.999999999999996Z" stroke="rgba(255,255,255,1)" stroke-width="2" fill-opacity="1" fill="#e0e0e0"></path><g id="SvgjsG2726"><text id="SvgjsText2727" font-family="微软雅黑" text-anchor="middle" font-size="12px" width="76px" fill="#000000" font-weight="400" align="middle" lineHeight="125%" anchor="middle" family="微软雅黑" size="12px" weight="400" font-style="" opacity="1" y="-2.0000000000000018" transform="rotate(0)"><tspan id="SvgjsTspan2728" dy="15" x="48"><tspan id="SvgjsTspan2729" style="text-decoration:;">未参与组装</tspan></tspan><tspan id="SvgjsTspan2730" dy="15" x="48"><tspan id="SvgjsTspan2731" style="text-decoration:;">reads</tspan></tspan></text></g></g><g id="SvgjsG2732" transform="translate(134.4991003974617,106.70001220703216)"><path id="SvgjsPath2733" d="M 0 4Q 0 0 4 0L 189.787793775288 0Q 193.787793775288 0 193.787793775288 4L 193.787793775288 54Q 193.787793775288 58 189.787793775288 58L 4 58Q 0 58 0 54Z" stroke="none" fill-opacity="1" fill="#e0e0e0"></path><g id="SvgjsG2734"><text id="SvgjsText2735" font-family="微软雅黑" text-anchor="middle" font-size="12px" width="174px" fill="#000000" font-weight="400" align="middle" lineHeight="125%" anchor="middle" family="微软雅黑" size="12px" weight="400" font-style="" opacity="1" y="19" transform="rotate(0)"><tspan id="SvgjsTspan2736" dy="15" x="97"><tspan id="SvgjsTspan2737" style="text-decoration:;">混合组装</tspan></tspan></text></g></g><g id="SvgjsG2738" transform="translate(26,412.6832354776916)"><path id="SvgjsPath2739" d="M 0 0L 96.32455460883035 0L 96.32455460883035 41.99856775304605L 0 41.99856775304605Z" stroke="none" fill="none"></path><g id="SvgjsG2740"><text id="SvgjsText2741" font-family="微软雅黑" text-anchor="middle" font-size="14px" width="97px" fill="#000000" font-weight="700" align="middle" lineHeight="125%" anchor="middle" family="微软雅黑" size="14px" weight="700" font-style="" opacity="1" y="9.249283876523027" transform="rotate(0)"><tspan id="SvgjsTspan2742" dy="17" x="48.5"><tspan id="SvgjsTspan2743" style="text-decoration:;">注释</tspan></tspan></text></g></g><g id="SvgjsG2744" transform="translate(152.99910039746186,556.3364188990736)"><path id="SvgjsPath2745" d="M 0 0L 65.60790231743249 0L 65.60790231743249 27.242395538638675L 0 27.242395538638675Z" stroke="rgba(255,255,255,1)" stroke-width="2" fill-opacity="1" fill="#e0e0e0"></path><g id="SvgjsG2746"><text id="SvgjsText2747" font-family="微软雅黑" text-anchor="middle" font-size="12px" width="46px" fill="#000000" font-weight="400" align="middle" lineHeight="125%" anchor="middle" family="微软雅黑" size="12px" weight="400" font-style="" opacity="1" y="3.6211977693193376" transform="rotate(0)"><tspan id="SvgjsTspan2748" dy="15" x="33"><tspan id="SvgjsTspan2749" style="text-decoration:;">Cluster</tspan></tspan></text></g></g><g id="SvgjsG2750"><path id="SvgjsPath2751" d="M500.9846720360031 50.596919128848185L528.956335462266 50.596919128848185L528.956335462266 50.596919128848185L554.3279988885289 50.596919128848185" stroke="#ffffff" stroke-width="2" fill="none" marker-end="url(#SvgjsMarker2752)"></path></g><g id="SvgjsG2754"><path id="SvgjsPath2755" d="M383.3929972851057 135.7000122070317L355.8399457289277 135.7000122070317L355.8399457289277 135.7000122070317L330.88689417274975 135.7000122070317" stroke="#000000" stroke-width="2" fill="none" marker-end="url(#SvgjsMarker2756)"></path></g><g id="SvgjsG2758"><path id="SvgjsPath2759" d="M556.2044598505934 135.7000122070317L526.0487285678496 135.7000122070317L526.0487285678496 135.7000122070317L498.49299728510584 135.7000122070317" stroke="#ffffff" stroke-width="2" fill="none" marker-end="url(#SvgjsMarker2760)"></path></g><g id="SvgjsG2762" transform="translate(541.3114625654875,194.1604978035939)"><path id="SvgjsPath2763" d="M 0 0L 112 0L 112 31L 0 31Z" stroke="rgba(255,255,255,1)" stroke-width="2" fill-opacity="1" fill="#e0e0e0"></path><g id="SvgjsG2764"><text id="SvgjsText2765" font-family="微软雅黑" text-anchor="middle" font-size="13px" width="92px" fill="#000000" font-weight="400" align="middle" lineHeight="125%" anchor="middle" family="微软雅黑" size="13px" weight="400" font-style="" opacity="1" y="4.875" transform="rotate(0)"><tspan id="SvgjsTspan2766" dy="16" x="56"><tspan id="SvgjsTspan2767" style="text-decoration:;">基因预测</tspan></tspan></text></g></g><g id="SvgjsG2768"><path id="SvgjsPath2769" d="M232.5 226.1604978035939L232.5 248.76358706708015L413.44604884128375 248.76358706708015L413.44604884128375 268.76667633056695" stroke="#ffffff" stroke-width="2" fill="none" marker-end="url(#SvgjsMarker2770)"></path></g><g id="SvgjsG2772"><path id="SvgjsPath2773" d="M597.3114625654875 226.1604978035939L597.3114625654875 248.76358706708015L413.44604884128375 248.76358706708015L413.44604884128375 268.76667633056695" stroke="#ffffff" stroke-width="2" fill="none" marker-end="url(#SvgjsMarker2774)"></path></g><g id="SvgjsG2776" transform="translate(325.4080820091333,325.32715429773407)"><path id="SvgjsPath2777" d="M 0 0L 176.07593366430092 0L 176.07593366430092 29.03952966222687L 0 29.03952966222687Z" stroke="rgba(255,255,255,1)" stroke-width="2" fill-opacity="1" fill="#e0e0e0"></path><g id="SvgjsG2778"><text id="SvgjsText2779" font-family="微软雅黑" text-anchor="middle" font-size="13px" width="157px" fill="#000000" font-weight="400" align="middle" lineHeight="125%" anchor="middle" family="微软雅黑" size="13px" weight="400" font-style="" opacity="1" y="3.8947648311134344" transform="rotate(0)"><tspan id="SvgjsTspan2780" dy="16" x="88.5"><tspan id="SvgjsTspan2781" style="text-decoration:;">非冗余基因</tspan></tspan></text></g></g><g id="SvgjsG2782"><path id="SvgjsPath2783" d="M413.44604884128375 304.0333480834961L413.44604884128375 314.1802511906153L413.44604884128375 314.1802511906153L413.44604884128375 321.72715429773416" stroke="#ffffff" stroke-width="2" fill="none" marker-end="url(#SvgjsMarker2784)"></path></g><g id="SvgjsG2786" transform="translate(133.3920976825675,392.99835474846805)"><path id="SvgjsPath2787" d="M 0 4Q 0 0 4 0L 553.8938968876441 0Q 557.8938968876441 0 557.8938968876441 4L 557.8938968876441 105.51328096744851Q 557.8938968876441 109.51328096744851 553.8938968876441 109.51328096744851L 4 109.51328096744851Q 0 109.51328096744851 0 105.51328096744851Z" stroke="none" fill-opacity="1" fill="#e0e0e0"></path><g id="SvgjsG2788"><text id="SvgjsText2789" font-family="微软雅黑" text-anchor="middle" font-size="13px" width="538px" fill="#000000" font-weight="400" align="middle" lineHeight="125%" anchor="middle" family="微软雅黑" size="13px" weight="400" font-style="" opacity="1" y="44.131640483724254" transform="rotate(0)"></text></g></g><g id="SvgjsG2790" transform="translate(281.66633858264106,432.4182852570466)"><path id="SvgjsPath2791" d="M 10.556157263996283 0L 62.73903159216849 0C 72.45674998755888 0 72.45674998755888 45.81210100684041 62.73903159216849 45.81210100684041L 10.556157263996283 45.81210100684041C -3.518719087998761 45.81210100684041 -3.518719087998761 0 10.556157263996283 0ZM 62.73903159216849 0C 53.19484388241007 0 53.19484388241007 45.81210100684041 62.73903159216849 45.81210100684041C 53.19484388241007 45.81210100684041 53.19484388241007 0 62.73903159216849 0" stroke="rgba(245,245,245,1)" stroke-width="2" fill-opacity="1" fill="#ffffff"></path><g id="SvgjsG2792"><text id="SvgjsText2793" font-family="微软雅黑" text-anchor="middle" font-size="12px" width="57px" fill="#000000" font-weight="400" align="middle" lineHeight="125%" anchor="middle" family="微软雅黑" size="12px" weight="400" font-style="" opacity="1" y="12.906050503420204" transform="rotate(0)"><tspan id="SvgjsTspan2794" dy="15" x="28.5"><tspan id="SvgjsTspan2795" style="text-decoration:;">KEGG</tspan></tspan></text></g></g><g id="SvgjsG2796" transform="translate(400.93300770516953,430.90908310275154)"><path id="SvgjsPath2797" d="M 10.556157263996283 0L 62.73903159216849 0C 72.45674998755888 0 72.45674998755888 45.81210100684041 62.73903159216849 45.81210100684041L 10.556157263996283 45.81210100684041C -3.518719087998761 45.81210100684041 -3.518719087998761 0 10.556157263996283 0ZM 62.73903159216849 0C 53.19484388241007 0 53.19484388241007 45.81210100684041 62.73903159216849 45.81210100684041C 53.19484388241007 45.81210100684041 53.19484388241007 0 62.73903159216849 0" stroke="rgba(245,245,245,1)" stroke-width="2" fill-opacity="1" fill="#ffffff"></path><g id="SvgjsG2798"><text id="SvgjsText2799" font-family="微软雅黑" text-anchor="middle" font-size="12px" width="57px" fill="#000000" font-weight="400" align="middle" lineHeight="125%" anchor="middle" family="微软雅黑" size="12px" weight="400" font-style="" opacity="1" y="12.906050503420204" transform="rotate(0)"><tspan id="SvgjsTspan2800" dy="15" x="28.5"><tspan id="SvgjsTspan2801" style="text-decoration:;">eggNOG</tspan></tspan></text></g></g><g id="SvgjsG2802" transform="translate(500.93300770516953,430.90908310275154)"><path id="SvgjsPath2803" d="M 10.556157263996283 0L 62.73903159216849 0C 72.45674998755888 0 72.45674998755888 45.81210100684041 62.73903159216849 45.81210100684041L 10.556157263996283 45.81210100684041C -3.518719087998761 45.81210100684041 -3.518719087998761 0 10.556157263996283 0ZM 62.73903159216849 0C 53.19484388241007 0 53.19484388241007 45.81210100684041 62.73903159216849 45.81210100684041C 53.19484388241007 45.81210100684041 53.19484388241007 0 62.73903159216849 0" stroke="rgba(245,245,245,1)" stroke-width="2" fill-opacity="1" fill="#ffffff"></path><g id="SvgjsG2804"><text id="SvgjsText2805" font-family="微软雅黑" text-anchor="middle" font-size="12px" width="57px" fill="#000000" font-weight="400" align="middle" lineHeight="125%" anchor="middle" family="微软雅黑" size="12px" weight="400" font-style="" opacity="1" y="12.906050503420204" transform="rotate(0)"><tspan id="SvgjsTspan2806" dy="15" x="28.5"><tspan id="SvgjsTspan2807" style="text-decoration:;">CAZy</tspan></tspan></text></g></g><g id="SvgjsG2808" transform="translate(600.9330077051695,430.90908310275154)"><path id="SvgjsPath2809" d="M 10.556157263996283 0L 62.73903159216849 0C 72.45674998755888 0 72.45674998755888 45.81210100684041 62.73903159216849 45.81210100684041L 10.556157263996283 45.81210100684041C -3.518719087998761 45.81210100684041 -3.518719087998761 0 10.556157263996283 0ZM 62.73903159216849 0C 53.19484388241007 0 53.19484388241007 45.81210100684041 62.73903159216849 45.81210100684041C 53.19484388241007 45.81210100684041 53.19484388241007 0 62.73903159216849 0" stroke="rgba(245,245,245,1)" stroke-width="2" fill-opacity="1" fill="#ffffff"></path><g id="SvgjsG2810"><text id="SvgjsText2811" font-family="微软雅黑" text-anchor="middle" font-size="12px" width="57px" fill="#000000" font-weight="400" align="middle" lineHeight="125%" anchor="middle" family="微软雅黑" size="12px" weight="400" font-style="" opacity="1" y="12.906050503420204" transform="rotate(0)"><tspan id="SvgjsTspan2812" dy="15" x="28.5"><tspan id="SvgjsTspan2813" style="text-decoration:;">CARD</tspan></tspan></text></g></g><g id="SvgjsG2814" transform="translate(438.714148081737,392.99835474846805)"><path id="SvgjsPath2815" d="M 0 0L 74.5 0L 74.5 20.35913652500767L 0 20.35913652500767Z" stroke="none" fill="none"></path><g id="SvgjsG2816"><text id="SvgjsText2817" font-family="微软雅黑" text-anchor="middle" font-size="13px" width="75px" fill="#000000" font-weight="700" align="middle" lineHeight="125%" anchor="middle" family="微软雅黑" size="13px" weight="700" font-style="" opacity="1" y="-0.4454317374961647" transform="rotate(0)"><tspan id="SvgjsTspan2818" dy="16" x="37.5"><tspan id="SvgjsTspan2819" style="text-decoration:;">功能注释</tspan></tspan></text></g></g><g id="SvgjsG2820" transform="translate(223.6061031123562,556.3364188990736)"><path id="SvgjsPath2821" d="M 0 0L 77.50089960253814 0L 77.50089960253814 27.242395538638675L 0 27.242395538638675Z" stroke="rgba(255,255,255,1)" stroke-width="2" fill-opacity="1" fill="#e0e0e0"></path><g id="SvgjsG2822"><text id="SvgjsText2823" font-family="微软雅黑" text-anchor="middle" font-size="12px" width="58px" fill="#000000" font-weight="400" align="middle" lineHeight="125%" anchor="middle" family="微软雅黑" size="12px" weight="400" font-style="" opacity="1" y="3.6211977693193376" transform="rotate(0)"><tspan id="SvgjsTspan2824" dy="15" x="39"><tspan id="SvgjsTspan2825" style="text-decoration:;">Heatmap</tspan></tspan></text></g></g><g id="SvgjsG2826" transform="translate(307.60700271489435,556.3364188990736)"><path id="SvgjsPath2827" d="M 0 0L 65.60790231743249 0L 65.60790231743249 27.242395538638675L 0 27.242395538638675Z" stroke="rgba(255,255,255,1)" stroke-width="2" fill-opacity="1" fill="#e0e0e0"></path><g id="SvgjsG2828"><text id="SvgjsText2829" font-family="微软雅黑" text-anchor="middle" font-size="12px" width="46px" fill="#000000" font-weight="400" align="middle" lineHeight="125%" anchor="middle" family="微软雅黑" size="12px" weight="400" font-style="" opacity="1" y="3.6211977693193376" transform="rotate(0)"><tspan id="SvgjsTspan2830" dy="15" x="33"><tspan id="SvgjsTspan2831" style="text-decoration:;">PCA</tspan></tspan></text></g></g><g id="SvgjsG2832" transform="translate(152.99910039746186,591.4576166683928)"><path id="SvgjsPath2833" d="M 0 0L 65.60790231743249 0L 65.60790231743249 25.242395538638675L 0 25.242395538638675Z" stroke="rgba(255,255,255,1)" stroke-width="2" fill-opacity="1" fill="#e0e0e0"></path><g id="SvgjsG2834"><text id="SvgjsText2835" font-family="微软雅黑" text-anchor="middle" font-size="12px" width="46px" fill="#000000" font-weight="400" align="middle" lineHeight="125%" anchor="middle" family="微软雅黑" size="12px" weight="400" font-style="" opacity="1" y="2.6211977693193376" transform="rotate(0)"><tspan id="SvgjsTspan2836" dy="15" x="33"><tspan id="SvgjsTspan2837" style="text-decoration:;">NMDS</tspan></tspan></text></g></g><g id="SvgjsG2838" transform="translate(307.60700271489435,590.4576166683928)"><path id="SvgjsPath2839" d="M 0 0L 65.60790231743249 0L 65.60790231743249 27.242395538638675L 0 27.242395538638675Z" stroke="rgba(255,255,255,1)" stroke-width="2" fill-opacity="1" fill="#e0e0e0"></path><g id="SvgjsG2840"><text id="SvgjsText2841" font-family="微软雅黑" text-anchor="middle" font-size="12px" width="46px" fill="#000000" font-weight="400" align="middle" lineHeight="125%" anchor="middle" family="微软雅黑" size="12px" weight="400" font-style="" opacity="1" y="3.6211977693193376" transform="rotate(0)"><tspan id="SvgjsTspan2842" dy="15" x="33"><tspan id="SvgjsTspan2843" style="text-decoration:;">Anosim</tspan></tspan></text></g></g><g id="SvgjsG2844" transform="translate(223.6061031123562,590.4576166683928)"><path id="SvgjsPath2845" d="M 0 0L 77.5008996025382 0L 77.5008996025382 27.242395538638675L 0 27.242395538638675Z" stroke="rgba(255,255,255,1)" stroke-width="2" fill-opacity="1" fill="#e0e0e0"></path><g id="SvgjsG2846"><text id="SvgjsText2847" font-family="微软雅黑" text-anchor="middle" font-size="12px" width="58px" fill="#000000" font-weight="400" align="middle" lineHeight="125%" anchor="middle" family="微软雅黑" size="12px" weight="400" font-style="" opacity="1" y="3.6211977693193376" transform="rotate(0)"><tspan id="SvgjsTspan2848" dy="15" x="39"><tspan id="SvgjsTspan2849" style="text-decoration:;">pathway</tspan></tspan></text></g></g><g id="SvgjsG2850" transform="translate(152.99910039746186,624.578814437712)"><path id="SvgjsPath2851" d="M 0 0L 65.60790231743249 0L 65.60790231743249 27.242395538638675L 0 27.242395538638675Z" stroke="rgba(255,255,255,1)" stroke-width="2" fill-opacity="1" fill="#e0e0e0"></path><g id="SvgjsG2852"><text id="SvgjsText2853" font-family="微软雅黑" text-anchor="middle" font-size="12px" width="46px" fill="#000000" font-weight="400" align="middle" lineHeight="125%" anchor="middle" family="微软雅黑" size="12px" weight="400" font-style="" opacity="1" y="3.6211977693193376" transform="rotate(0)"><tspan id="SvgjsTspan2854" dy="15" x="33"><tspan id="SvgjsTspan2855" style="text-decoration:;">LEfSe</tspan></tspan></text></g></g><g id="SvgjsG2856" transform="translate(223.6061031123562,624.578814437712)"><path id="SvgjsPath2857" d="M 0 0L 77.5008996025382 0L 77.5008996025382 27.242395538638675L 0 27.242395538638675Z" stroke="rgba(255,255,255,1)" stroke-width="2" fill-opacity="1" fill="#e0e0e0"></path><g id="SvgjsG2858"><text id="SvgjsText2859" font-family="微软雅黑" text-anchor="middle" font-size="12px" width="58px" fill="#000000" font-weight="400" align="middle" lineHeight="125%" anchor="middle" family="微软雅黑" size="12px" weight="400" font-style="" opacity="1" y="3.6211977693193376" transform="rotate(0)"><tspan id="SvgjsTspan2860" dy="15" x="39"><tspan id="SvgjsTspan2861" style="text-decoration:;">Metastat</tspan></tspan></text></g></g><g id="SvgjsG2862" transform="translate(307.60700271489435,624.578814437712)"><path id="SvgjsPath2863" d="M 0 0L 65.60790231743249 0L 65.60790231743249 27.242395538638675L 0 27.242395538638675Z" stroke="rgba(255,255,255,1)" stroke-width="2" fill-opacity="1" fill="#e0e0e0"></path><g id="SvgjsG2864"><text id="SvgjsText2865" font-family="微软雅黑" text-anchor="middle" font-size="12px" width="46px" fill="#000000" font-weight="400" align="middle" lineHeight="125%" anchor="middle" family="微软雅黑" size="12px" weight="400" font-style="" opacity="1" y="3.6211977693193376" transform="rotate(0)"><tspan id="SvgjsTspan2866" dy="15" x="33"><tspan id="SvgjsTspan2867" style="text-decoration:;">ROC</tspan></tspan></text></g></g><g id="SvgjsG2868" transform="translate(206.1065529136253,534.998354748468)"><path id="SvgjsPath2869" d="M 0 0L 112.5 0L 112.5 21.072835646690805L 0 21.072835646690805Z" stroke="none" fill="none"></path><g id="SvgjsG2870"><text id="SvgjsText2871" font-family="微软雅黑" text-anchor="middle" font-size="12px" width="113px" fill="#000000" font-weight="700" align="middle" lineHeight="125%" anchor="middle" family="微软雅黑" size="12px" weight="700" font-style="" opacity="1" y="0.5364178233454027" transform="rotate(0)"><tspan id="SvgjsTspan2872" dy="15" x="56.5"><tspan id="SvgjsTspan2873" style="text-decoration:;">物种和功能分析</tspan></tspan></text></g></g><g id="SvgjsG2874" transform="translate(450.44604884128375,556.3364188990736)"><path id="SvgjsPath2875" d="M 0 0L 88.05395115871625 0L 88.05395115871625 27.242395538638675L 0 27.242395538638675Z" stroke="rgba(255,255,255,1)" stroke-width="2" fill-opacity="1" fill="#e0e0e0"></path><g id="SvgjsG2876"><text id="SvgjsText2877" font-family="微软雅黑" text-anchor="middle" font-size="12px" width="69px" fill="#000000" font-weight="400" align="middle" lineHeight="125%" anchor="middle" family="微软雅黑" size="12px" weight="400" font-style="" opacity="1" y="3.6211977693193376" transform="rotate(0)"><tspan id="SvgjsTspan2878" dy="15" x="44.5"><tspan id="SvgjsTspan2879" style="text-decoration:;">ARO丰度图</tspan></tspan></text></g></g><g id="SvgjsG2880" transform="translate(550.5,556.3364188990736)"><path id="SvgjsPath2881" d="M 0 0L 134 0L 134 27.242395538638675L 0 27.242395538638675Z" stroke="rgba(255,255,255,1)" stroke-width="2" fill-opacity="1" fill="#e0e0e0"></path><g id="SvgjsG2882"><text id="SvgjsText2883" font-family="微软雅黑" text-anchor="middle" font-size="12px" width="114px" fill="#000000" font-weight="400" align="middle" lineHeight="125%" anchor="middle" family="微软雅黑" size="12px" weight="400" font-style="" opacity="1" y="3.6211977693193376" transform="rotate(0)"><tspan id="SvgjsTspan2884" dy="15" x="67"><tspan id="SvgjsTspan2885" style="text-decoration:;">Heatmap</tspan></tspan></text></g></g><g id="SvgjsG2886" transform="translate(450.44604884128375,590.4576166683928)"><path id="SvgjsPath2887" d="M 0 0L 88.05395115871625 0L 88.05395115871625 27.242395538638675L 0 27.242395538638675Z" stroke="rgba(255,255,255,1)" stroke-width="2" fill-opacity="1" fill="#e0e0e0"></path><g id="SvgjsG2888"><text id="SvgjsText2889" font-family="微软雅黑" text-anchor="middle" font-size="12px" width="69px" fill="#000000" font-weight="400" align="middle" lineHeight="125%" anchor="middle" family="微软雅黑" size="12px" weight="400" font-style="" opacity="1" y="3.6211977693193376" transform="rotate(0)"><tspan id="SvgjsTspan2890" dy="15" x="44.5"><tspan id="SvgjsTspan2891" style="text-decoration:;">类型分布图</tspan></tspan></text></g></g><g id="SvgjsG2892" transform="translate(550.5,590.4576166683928)"><path id="SvgjsPath2893" d="M 0 0L 134 0L 134 27.242395538638675L 0 27.242395538638675Z" stroke="rgba(255,255,255,1)" stroke-width="2" fill-opacity="1" fill="#e0e0e0"></path><g id="SvgjsG2894"><text id="SvgjsText2895" font-family="微软雅黑" text-anchor="middle" font-size="12px" width="114px" fill="#000000" font-weight="400" align="middle" lineHeight="125%" anchor="middle" family="微软雅黑" size="12px" weight="400" font-style="" opacity="1" y="3.6211977693193376" transform="rotate(0)"><tspan id="SvgjsTspan2896" dy="15" x="67"><tspan id="SvgjsTspan2897" style="text-decoration:;">组间ARO数目箱线图</tspan></tspan></text></g></g><g id="SvgjsG2898" transform="translate(450.44604884128375,624.578814437712)"><path id="SvgjsPath2899" d="M 0 0L 234.05395115871625 0L 234.05395115871625 27.242395538638675L 0 27.242395538638675Z" stroke="rgba(255,255,255,1)" stroke-width="2" fill-opacity="1" fill="#e0e0e0"></path><g id="SvgjsG2900"><text id="SvgjsText2901" font-family="微软雅黑" text-anchor="middle" font-size="12px" width="215px" fill="#000000" font-weight="400" align="middle" lineHeight="125%" anchor="middle" family="微软雅黑" size="12px" weight="400" font-style="" opacity="1" y="3.6211977693193376" transform="rotate(0)"><tspan id="SvgjsTspan2902" dy="15" x="117.5"><tspan id="SvgjsTspan2903" style="text-decoration:;">抗性基因物种归属分析</tspan></tspan></text></g></g><g id="SvgjsG2904" transform="translate(453.5,531.7000122070312)"><path id="SvgjsPath2905" d="M 0 0L 227.94604884128375 0L 227.94604884128375 24.636406692041987L 0 24.636406692041987Z" stroke="none" fill="none"></path><g id="SvgjsG2906"><text id="SvgjsText2907" font-family="微软雅黑" text-anchor="middle" font-size="12px" width="228px" fill="#000000" font-weight="700" align="middle" lineHeight="125%" anchor="middle" family="微软雅黑" size="12px" weight="700" font-style="" opacity="1" y="2.3182033460209936" transform="rotate(0)"><tspan id="SvgjsTspan2908" dy="15" x="114"><tspan id="SvgjsTspan2909" style="text-decoration:;">抗性基因分析</tspan></tspan></text></g></g><g id="SvgjsG2910" transform="translate(161.14008949406372,392.99835474846805)"><path id="SvgjsPath2911" d="M 0 0L 74.5 0L 74.5 20.35913652500767L 0 20.35913652500767Z" stroke="none" fill="none"></path><g id="SvgjsG2912"><text id="SvgjsText2913" font-family="微软雅黑" text-anchor="middle" font-size="13px" width="75px" fill="#000000" font-weight="700" align="middle" lineHeight="125%" anchor="middle" family="微软雅黑" size="13px" weight="700" font-style="" opacity="1" y="-0.4454317374961647" transform="rotate(0)"><tspan id="SvgjsTspan2914" dy="16" x="37.5"><tspan id="SvgjsTspan2915" style="text-decoration:;">物种注释</tspan></tspan></text></g></g><g id="SvgjsG2916" transform="translate(162.14008949406372,432.4182852570466)"><path id="SvgjsPath2917" d="M 10.556157263996283 0L 62.73903159216849 0C 72.45674998755888 0 72.45674998755888 45.81210100684041 62.73903159216849 45.81210100684041L 10.556157263996283 45.81210100684041C -3.518719087998761 45.81210100684041 -3.518719087998761 0 10.556157263996283 0ZM 62.73903159216849 0C 53.19484388241007 0 53.19484388241007 45.81210100684041 62.73903159216849 45.81210100684041C 53.19484388241007 45.81210100684041 53.19484388241007 0 62.73903159216849 0" stroke="rgba(245,245,245,1)" stroke-width="2" fill-opacity="1" fill="#ffffff"></path><g id="SvgjsG2918"><text id="SvgjsText2919" font-family="微软雅黑" text-anchor="middle" font-size="12px" width="57px" fill="#000000" font-weight="400" align="middle" lineHeight="125%" anchor="middle" family="微软雅黑" size="12px" weight="400" font-style="" opacity="1" y="12.906050503420204" transform="rotate(0)"><tspan id="SvgjsTspan2920" dy="15" x="28.5"><tspan id="SvgjsTspan2921" style="text-decoration:;">Micro NR</tspan></tspan></text></g></g><g id="SvgjsG2922"><path id="SvgjsPath2923" d="M277.54812616569154 50.596919128848185L305.86785390432976 50.596919128848185L305.86785390432976 50.596919128848185L331.5875816429679 50.596919128848185" stroke="#ffffff" stroke-width="2" fill="none" marker-end="url(#SvgjsMarker2924)"></path></g><g id="SvgjsG2926"><path id="SvgjsPath2927" d="M231.3929972851057 164.70001220703216L231.3929972851057 179.43025500531303L231.3929972851057 179.43025500531303L231.3929972851057 190.560497803594" stroke="#323232" stroke-width="2" fill="none" marker-end="url(#SvgjsMarker2928)"></path></g><g id="SvgjsG2930"><path id="SvgjsPath2931" d="M603.5 164.23333740234375L603.5 177.73333740234375L603.5 177.73333740234375L603.5 188.63333740234384" stroke="#323232" stroke-width="2" fill="none" marker-end="url(#SvgjsMarker2932)"></path></g><g id="SvgjsG2934"><path id="SvgjsPath2935" d="M602.5 75.23333740234375L602.5 91.23333740234375L602.5 91.23333740234375L602.5 104.63333740234384" stroke="#323232" stroke-width="2" fill="none" marker-end="url(#SvgjsMarker2936)"></path></g><g id="SvgjsG2938"><path id="SvgjsPath2939" d="M412.3390461263896 362.3666839599614L412.3390461263896 377.6825193542147L412.3390461263896 377.6825193542147L412.3390461263896 390.39835474846814" stroke="#323232" stroke-width="2" fill="none" marker-end="url(#SvgjsMarker2940)"></path></g><g id="SvgjsG2942"><path id="SvgjsPath2943" d="M246.5 502.2075765880538L246.5 517.2204569951987L246.5 517.2204569951987L246.5 529.6333374023438" stroke="#323232" stroke-width="2" fill="none" marker-end="url(#SvgjsMarker2944)"></path></g><g id="SvgjsG2946"><path id="SvgjsPath2947" d="M630.5 501.1150111177169L630.5 516.6741742600302L630.5 516.6741742600302L630.5 528.6333374023438" stroke="#323232" stroke-width="2" fill="none" marker-end="url(#SvgjsMarker2948)"></path></g></svg>